<?xml version="1.0" standalone="no"?>
<!DOCTYPE svg PUBLIC "-//W3C//DTD SVG 20010904//EN"
 "http://www.w3.org/TR/2001/REC-SVG-20010904/DTD/svg10.dtd">
<svg version="1.0" xmlns="http://www.w3.org/2000/svg"
 width="700.000000pt" height="700.000000pt" viewBox="0 0 700.000000 700.000000"
 preserveAspectRatio="xMidYMid meet">
<metadata>
Created by potrace 1.11, written by Peter Selinger 2001-2013
</metadata>
<g transform="translate(0.000000,700.000000) scale(0.100000,-0.100000)"
fill="#000000" stroke="none">
<path d="M3950 6121 c-10 -4 -15 -22 -16 -56 -3 -185 -46 -359 -118 -480 -120
-203 -342 -315 -656 -330 -231 -11 -280 -17 -371 -40 -300 -77 -565 -255 -766
-517 -102 -131 -203 -339 -234 -480 -8 -40 -17 -58 -28 -59 -9 -1 -32 -3 -51
-4 -282 -20 -501 -139 -669 -362 -59 -79 -131 -236 -146 -321 -36 -199 -23
-343 48 -519 11 -29 19 -54 16 -56 -2 -2 -33 -24 -69 -49 -237 -167 -413 -465
-445 -755 -56 -501 239 -979 710 -1149 88 -32 173 -53 250 -61 33 -4 987 -7
2120 -7 2232 1 2113 -2 2280 53 269 88 502 285 633 536 252 484 104 1086 -340
1392 -44 30 -65 50 -59 57 14 18 49 120 66 193 22 90 22 257 1 355 -71 331
-324 590 -654 670 -71 17 -120 21 -274 22 -104 1 -188 4 -188 8 0 4 20 39 45
78 97 151 170 327 199 480 14 73 16 273 2 330 -3 14 -8 39 -12 55 -32 168
-156 391 -304 551 -95 103 -247 224 -350 280 -19 10 -42 24 -50 30 -66 49
-333 136 -455 149 -33 4 -69 8 -80 10 -11 1 -27 0 -35 -4z"/>
</g>
</svg>
